<?xml version="1.0" standalone="no"?>
<!DOCTYPE svg PUBLIC "-//W3C//DTD SVG 1.1//EN" "http://www.w3.org/Graphics/SVG/1.1/DTD/svg11.dtd">
<svg xmlns="http://www.w3.org/2000/svg" version="1.1">
<line  x1="87" y1="50" x2="162" y2="50" stroke="#333333" stroke-width="1" fill="none"/>
<line  x1="125" y1="50" x2="125" y2="65" stroke="#333333" stroke-width="1" fill="none"/>
<text  x="102" y="48" style="font-size:12; font-family:Dialog.plain; fill=#333333">Aircraft</text>
<line  x1="237" y1="50" x2="312" y2="50" stroke="#333333" stroke-width="1" fill="none"/>
<line  x1="275" y1="50" x2="275" y2="65" stroke="#333333" stroke-width="1" fill="none"/>
<text  x="231" y="48" style="font-size:12; font-family:Dialog.plain; fill=#333333">GroundFacility</text>
<line  x1="387" y1="50" x2="462" y2="50" stroke="#333333" stroke-width="1" fill="none"/>
<line  x1="425" y1="50" x2="425" y2="65" stroke="#333333" stroke-width="1" fill="none"/>
<text  x="392" y="48" style="font-size:12; font-family:Dialog.plain; fill=#333333">Testbench</text>
<text  x="10" y="72" style="font-size:12; font-family:Dialog.plain; fill=#333333">@0</text>
<line  x1="125" y1="65" x2="125" y2="75" stroke="#333333" stroke-width="1" fill="none"/>
<rect  x="79" y="75" width="92" height="19" rx="5" ry="5" fill="#c1daf1"/>
<rect  x="79" y="75" width="92" height="19" rx="5" ry="5" fill="none" stroke="#333333" stroke-width="1"/>
<text  x="81" y="90" style="font-size:12; font-family:Dialog.plain; fill=#333333">WaitActivation</text>
<line  x1="125" y1="94" x2="125" y2="104" stroke="#333333" stroke-width="1" fill="none"/>
<line  x1="275" y1="65" x2="275" y2="104" stroke="#333333" stroke-width="1" fill="none"/>
<line  x1="425" y1="65" x2="425" y2="104" stroke="#333333" stroke-width="1" fill="none"/>
<line  x1="275" y1="104" x2="275" y2="114" stroke="#333333" stroke-width="1" fill="none"/>
<rect  x="238" y="114" width="75" height="19" rx="5" ry="5" fill="#c1daf1"/>
<rect  x="238" y="114" width="75" height="19" rx="5" ry="5" fill="none" stroke="#333333" stroke-width="1"/>
<text  x="240" y="129" style="font-size:12; font-family:Dialog.plain; fill=#333333">WaitForCon</text>
<line  x1="275" y1="133" x2="275" y2="143" stroke="#333333" stroke-width="1" fill="none"/>
<line  x1="125" y1="104" x2="125" y2="143" stroke="#333333" stroke-width="1" fill="none"/>
<line  x1="425" y1="104" x2="425" y2="143" stroke="#333333" stroke-width="1" fill="none"/>
<line  x1="425" y1="152" x2="125" y2="152" stroke="#80b4cd" stroke-width="1" fill="none"/>
<line  x1="425" y1="153" x2="125" y2="153" stroke="#333333" stroke-width="1" fill="none"/>
<polygon  points="125,153 133,148 133,157 " fill="#333333"/>
<polygon  points="125,153 133,148 133,157 " fill="none" stroke="#333333" stroke-width="1"/>
<text  x="249" y="151" style="font-size:12; font-family:Dialog.plain; fill=#333333">startIN()</text>
<line  x1="125" y1="143" x2="125" y2="163" stroke="#333333" stroke-width="1" fill="none"/>
<line  x1="275" y1="143" x2="275" y2="163" stroke="#333333" stroke-width="1" fill="none"/>
<line  x1="425" y1="143" x2="425" y2="163" stroke="#333333" stroke-width="1" fill="none"/>
<line  x1="125" y1="163" x2="125" y2="173" stroke="#333333" stroke-width="1" fill="none"/>
<rect  x="95" y="173" width="60" height="19" rx="5" ry="5" fill="#c1daf1"/>
<rect  x="95" y="173" width="60" height="19" rx="5" ry="5" fill="none" stroke="#333333" stroke-width="1"/>
<text  x="97" y="188" style="font-size:12; font-family:Dialog.plain; fill=#333333">SendCon</text>
<line  x1="125" y1="192" x2="125" y2="202" stroke="#333333" stroke-width="1" fill="none"/>
<line  x1="275" y1="163" x2="275" y2="202" stroke="#333333" stroke-width="1" fill="none"/>
<line  x1="425" y1="163" x2="425" y2="202" stroke="#333333" stroke-width="1" fill="none"/>
<line  x1="425" y1="202" x2="425" y2="212" stroke="#333333" stroke-width="1" fill="none"/>
<rect  x="381" y="212" width="88" height="19" rx="5" ry="5" fill="#c1daf1"/>
<rect  x="381" y="212" width="88" height="19" rx="5" ry="5" fill="none" stroke="#333333" stroke-width="1"/>
<text  x="383" y="227" style="font-size:12; font-family:Dialog.plain; fill=#333333">waitForResult</text>
<line  x1="425" y1="231" x2="425" y2="241" stroke="#333333" stroke-width="1" fill="none"/>
<line  x1="125" y1="202" x2="125" y2="241" stroke="#333333" stroke-width="1" fill="none"/>
<line  x1="275" y1="202" x2="275" y2="241" stroke="#333333" stroke-width="1" fill="none"/>
<line  x1="125" y1="250" x2="275" y2="250" stroke="#80b4cd" stroke-width="1" fill="none"/>
<line  x1="125" y1="251" x2="275" y2="251" stroke="#333333" stroke-width="1" fill="none"/>
<polygon  points="275,251 266,255 266,246 " fill="#333333"/>
<polygon  points="275,251 266,255 266,246 " fill="none" stroke="#333333" stroke-width="1"/>
<text  x="171" y="249" style="font-size:12; font-family:Dialog.plain; fill=#333333">FN_CON()</text>
<line  x1="275" y1="241" x2="275" y2="261" stroke="#333333" stroke-width="1" fill="none"/>
<line  x1="125" y1="241" x2="125" y2="261" stroke="#333333" stroke-width="1" fill="none"/>
<line  x1="425" y1="241" x2="425" y2="261" stroke="#333333" stroke-width="1" fill="none"/>
<line  x1="125" y1="261" x2="125" y2="271" stroke="#333333" stroke-width="1" fill="none"/>
<rect  x="99" y="271" width="53" height="19" rx="5" ry="5" fill="#c1daf1"/>
<rect  x="99" y="271" width="53" height="19" rx="5" ry="5" fill="none" stroke="#333333" stroke-width="1"/>
<text  x="101" y="286" style="font-size:12; font-family:Dialog.plain; fill=#333333">WaitAck</text>
<line  x1="125" y1="290" x2="125" y2="300" stroke="#333333" stroke-width="1" fill="none"/>
<line  x1="275" y1="261" x2="275" y2="300" stroke="#333333" stroke-width="1" fill="none"/>
<line  x1="425" y1="261" x2="425" y2="300" stroke="#333333" stroke-width="1" fill="none"/>
<line  x1="275" y1="309" x2="125" y2="309" stroke="#80b4cd" stroke-width="1" fill="none"/>
<line  x1="275" y1="310" x2="125" y2="310" stroke="#333333" stroke-width="1" fill="none"/>
<polygon  points="125,310 133,305 133,314 " fill="#333333"/>
<polygon  points="125,310 133,305 133,314 " fill="none" stroke="#333333" stroke-width="1"/>
<text  x="173" y="308" style="font-size:12; font-family:Dialog.plain; fill=#333333">FN_ACK()</text>
<line  x1="125" y1="300" x2="125" y2="320" stroke="#333333" stroke-width="1" fill="none"/>
<line  x1="275" y1="300" x2="275" y2="320" stroke="#333333" stroke-width="1" fill="none"/>
<line  x1="425" y1="300" x2="425" y2="320" stroke="#333333" stroke-width="1" fill="none"/>
<line  x1="275" y1="320" x2="275" y2="330" stroke="#333333" stroke-width="1" fill="none"/>
<rect  x="238" y="330" width="75" height="19" rx="5" ry="5" fill="#c1daf1"/>
<rect  x="238" y="330" width="75" height="19" rx="5" ry="5" fill="none" stroke="#333333" stroke-width="1"/>
<text  x="240" y="345" style="font-size:12; font-family:Dialog.plain; fill=#333333">WaitForCon</text>
<line  x1="275" y1="349" x2="275" y2="359" stroke="#333333" stroke-width="1" fill="none"/>
<line  x1="125" y1="320" x2="125" y2="359" stroke="#333333" stroke-width="1" fill="none"/>
<line  x1="425" y1="320" x2="425" y2="359" stroke="#333333" stroke-width="1" fill="none"/>
<line  x1="125" y1="368" x2="425" y2="368" stroke="#80b4cd" stroke-width="1" fill="none"/>
<line  x1="125" y1="369" x2="425" y2="369" stroke="#333333" stroke-width="1" fill="none"/>
<polygon  points="425,369 416,373 416,364 " fill="#333333"/>
<polygon  points="425,369 416,373 416,364 " fill="none" stroke="#333333" stroke-width="1"/>
<text  x="245" y="367" style="font-size:12; font-family:Dialog.plain; fill=#333333">success()</text>
<line  x1="425" y1="359" x2="425" y2="379" stroke="#333333" stroke-width="1" fill="none"/>
<line  x1="125" y1="359" x2="125" y2="379" stroke="#333333" stroke-width="1" fill="none"/>
<line  x1="275" y1="359" x2="275" y2="379" stroke="#333333" stroke-width="1" fill="none"/>
<line  x1="425" y1="379" x2="425" y2="402" stroke="#333333" stroke-width="1" fill="none"/>
<line  x1="415" y1="379" x2="435" y2="399" stroke="#333333" stroke-width="1" fill="none"/>
<line  x1="415" y1="399" x2="435" y2="379" stroke="#333333" stroke-width="1" fill="none"/>
<line  x1="125" y1="379" x2="125" y2="402" stroke="#333333" stroke-width="1" fill="none"/>
<line  x1="275" y1="379" x2="275" y2="402" stroke="#333333" stroke-width="1" fill="none"/>
<line  x1="125" y1="402" x2="125" y2="412" stroke="#333333" stroke-width="1" fill="none"/>
<rect  x="79" y="412" width="92" height="19" rx="5" ry="5" fill="#c1daf1"/>
<rect  x="79" y="412" width="92" height="19" rx="5" ry="5" fill="none" stroke="#333333" stroke-width="1"/>
<text  x="81" y="427" style="font-size:12; font-family:Dialog.plain; fill=#333333">WaitActivation</text>
<line  x1="125" y1="431" x2="125" y2="441" stroke="#333333" stroke-width="1" fill="none"/>
<line  x1="275" y1="402" x2="275" y2="441" stroke="#333333" stroke-width="1" fill="none"/>
<line  x1="425" y1="402" x2="425" y2="441" stroke="#333333" stroke-width="1" fill="none"/>
</svg>