<?xml version="1.0" standalone="no"?>
<!DOCTYPE svg PUBLIC "-//W3C//DTD SVG 1.1//EN" "http://www.w3.org/Graphics/SVG/1.1/DTD/svg11.dtd">
<svg xmlns="http://www.w3.org/2000/svg" version="1.1" width="1410" height="708" viewbox="302 255 1108 453">
<rect  x="307" y="427" width="154" height="156" fill="none" stroke="#000000" stroke-width="1"/>
<rect  x="308" y="428" width="152" height="154" fill="#c1daf1"/>
<text  x="345" y="442" style="font-size:12; font-family:SansSerif.bold; font-weight=bold; fill=#000000">&lt;&lt;block&gt;&gt;</text>
<text  x="351" y="460" style="font-size:12; font-family:SansSerif.plain; fill=#000000">Testbench</text>
<line  x1="307" y1="466" x2="461" y2="466" stroke="#000000" stroke-width="1" fill="none"/>
<line  x1="307" y1="475" x2="461" y2="475" stroke="#000000" stroke-width="1" fill="none"/>
<line  x1="307" y1="484" x2="461" y2="484" stroke="#000000" stroke-width="1" fill="none"/>
<text  x="314" y="500" style="font-size:10; font-family:SansSerif.plain; fill=#000000">~ out startIN()</text>
<text  x="314" y="513" style="font-size:10; font-family:SansSerif.plain; fill=#000000">~ in success()</text>
<text  x="314" y="526" style="font-size:10; font-family:SansSerif.plain; fill=#000000">~ in failure()</text>
<rect  x="568" y="310" width="850" height="393" fill="none" stroke="#000000" stroke-width="1"/>
<rect  x="569" y="311" width="848" height="391" fill="#c1daf1"/>
<text  x="954" y="325" style="font-size:12; font-family:SansSerif.bold; font-weight=bold; fill=#000000">&lt;&lt;block&gt;&gt;</text>
<text  x="977" y="343" style="font-size:12; font-family:SansSerif.plain; fill=#000000">FANS</text>
<line  x1="568" y1="349" x2="1418" y2="349" stroke="#000000" stroke-width="1" fill="none"/>
<line  x1="568" y1="358" x2="1418" y2="358" stroke="#000000" stroke-width="1" fill="none"/>
<line  x1="568" y1="367" x2="1418" y2="367" stroke="#000000" stroke-width="1" fill="none"/>
<text  x="575" y="383" style="font-size:10; font-family:SansSerif.plain; fill=#000000">~ in startIN()</text>
<text  x="575" y="396" style="font-size:10; font-family:SansSerif.plain; fill=#000000">~ out success()</text>
<text  x="575" y="409" style="font-size:10; font-family:SansSerif.plain; fill=#000000">~ out failure()</text>
<rect  x="647" y="459" width="264" height="215" fill="none" stroke="#000000" stroke-width="1"/>
<rect  x="648" y="460" width="262" height="213" fill="#c1daf1"/>
<text  x="740" y="474" style="font-size:12; font-family:SansSerif.bold; font-weight=bold; fill=#000000">&lt;&lt;block&gt;&gt;</text>
<text  x="756" y="492" style="font-size:12; font-family:SansSerif.plain; fill=#000000">Aircraft</text>
<line  x1="647" y1="498" x2="911" y2="498" stroke="#000000" stroke-width="1" fill="none"/>
<text  x="654" y="514" style="font-size:10; font-family:SansSerif.plain; fill=#000000">- ATST1 : Timer;</text>
<text  x="654" y="527" style="font-size:10; font-family:SansSerif.plain; fill=#000000">- transmissions = 0 : int;</text>
<line  x1="647" y1="533" x2="911" y2="533" stroke="#000000" stroke-width="1" fill="none"/>
<line  x1="647" y1="542" x2="911" y2="542" stroke="#000000" stroke-width="1" fill="none"/>
<text  x="654" y="558" style="font-size:10; font-family:SansSerif.plain; fill=#000000">~ out FN_CON()</text>
<text  x="654" y="571" style="font-size:10; font-family:SansSerif.plain; fill=#000000">~ in FN_ACK()</text>
<rect  x="1119" y="465" width="271" height="204" fill="none" stroke="#000000" stroke-width="1"/>
<rect  x="1120" y="466" width="269" height="202" fill="#c1daf1"/>
<text  x="1216" y="480" style="font-size:12; font-family:SansSerif.bold; font-weight=bold; fill=#000000">&lt;&lt;block&gt;&gt;</text>
<text  x="1210" y="498" style="font-size:12; font-family:SansSerif.plain; fill=#000000">GroundFacility</text>
<line  x1="1119" y1="504" x2="1390" y2="504" stroke="#000000" stroke-width="1" fill="none"/>
<line  x1="1119" y1="513" x2="1390" y2="513" stroke="#000000" stroke-width="1" fill="none"/>
<line  x1="1119" y1="522" x2="1390" y2="522" stroke="#000000" stroke-width="1" fill="none"/>
<text  x="1126" y="538" style="font-size:10; font-family:SansSerif.plain; fill=#000000">~ in FN_CON()</text>
<text  x="1126" y="551" style="font-size:10; font-family:SansSerif.plain; fill=#000000">~ out FN_ACK()</text>
<rect  x="563" y="501" width="9" height="9" fill="#000000"/>
<rect  x="456" y="500" width="9" height="9" fill="#000000"/>
<line  x1="466" y1="505" x2="563" y2="505" stroke="#000000" stroke-width="1" fill="none"/>
<rect  x="1114" y="562" width="9" height="9" fill="#000000"/>
<rect  x="906" y="561" width="9" height="9" fill="#000000"/>
<line  x1="916" y1="566" x2="1114" y2="566" stroke="#000000" stroke-width="1" fill="none"/>
</svg>