<?xml version="1.0" standalone="no"?>
<!DOCTYPE svg PUBLIC "-//W3C//DTD SVG 1.1//EN" "http://www.w3.org/Graphics/SVG/1.1/DTD/svg11.dtd">
<svg xmlns="http://www.w3.org/2000/svg" version="1.1" width="576" height="387" viewbox="288 41 288 346">
<ellipse  cx="415" cy="53" rx="7" ry="7" fill="#000000"/>
<line  x1="415" y1="61" x2="415" y2="66" stroke="#000000" stroke-width="1" fill="none"/>
<rect  x="373" y="92" width="85" height="46" rx="5" ry="5" fill="#c1daf1"/>
<rect  x="373" y="92" width="85" height="46" rx="5" ry="5" fill="none" stroke="#000000" stroke-width="1"/>
<text  x="374" y="107" style="font-size:12; font-family:SansSerif.bold; font-weight=bold; fill=#000000">WaitForCon</text>
<line  x1="373" y1="109" x2="458" y2="109" stroke="#000000" stroke-width="1" fill="none"/>
<line  x1="415" y1="158" x2="415" y2="153" stroke="#000000" stroke-width="1" fill="none"/>
<line  x1="415" y1="178" x2="415" y2="183" stroke="#000000" stroke-width="1" fill="none"/>
<line  x1="378" y1="159" x2="454" y2="159" stroke="#80b4cd" stroke-width="1" fill="none"/>
<line  x1="454" y1="159" x2="454" y2="179" stroke="#80b4cd" stroke-width="1" fill="none"/>
<line  x1="378" y1="179" x2="454" y2="179" stroke="#80b4cd" stroke-width="1" fill="none"/>
<line  x1="378" y1="159" x2="388" y2="169" stroke="#80b4cd" stroke-width="1" fill="none"/>
<line  x1="378" y1="179" x2="388" y2="169" stroke="#80b4cd" stroke-width="1" fill="none"/>
<line  x1="377" y1="158" x2="453" y2="158" stroke="#000000" stroke-width="1" fill="none"/>
<line  x1="453" y1="158" x2="453" y2="178" stroke="#000000" stroke-width="1" fill="none"/>
<line  x1="377" y1="178" x2="453" y2="178" stroke="#000000" stroke-width="1" fill="none"/>
<line  x1="377" y1="158" x2="387" y2="168" stroke="#000000" stroke-width="1" fill="none"/>
<line  x1="377" y1="178" x2="387" y2="168" stroke="#000000" stroke-width="1" fill="none"/>
<text  x="389" y="173" style="font-size:12; font-family:SansSerif.plain; fill=#000000">FN_CON()</text>
<line  x1="390" y1="347" x2="390" y2="342" stroke="#000000" stroke-width="1" fill="none"/>
<line  x1="390" y1="367" x2="390" y2="372" stroke="#000000" stroke-width="1" fill="none"/>
<line  x1="359" y1="348" x2="414" y2="348" stroke="#80b4cd" stroke-width="1" fill="none"/>
<line  x1="359" y1="368" x2="414" y2="368" stroke="#80b4cd" stroke-width="1" fill="none"/>
<line  x1="359" y1="348" x2="359" y2="368" stroke="#80b4cd" stroke-width="1" fill="none"/>
<line  x1="414" y1="348" x2="424" y2="358" stroke="#80b4cd" stroke-width="1" fill="none"/>
<line  x1="414" y1="368" x2="424" y2="358" stroke="#80b4cd" stroke-width="1" fill="none"/>
<line  x1="358" y1="347" x2="413" y2="347" stroke="#000000" stroke-width="1" fill="none"/>
<line  x1="358" y1="367" x2="413" y2="367" stroke="#000000" stroke-width="1" fill="none"/>
<line  x1="358" y1="347" x2="358" y2="367" stroke="#000000" stroke-width="1" fill="none"/>
<line  x1="413" y1="347" x2="423" y2="357" stroke="#000000" stroke-width="1" fill="none"/>
<line  x1="413" y1="367" x2="423" y2="357" stroke="#000000" stroke-width="1" fill="none"/>
<text  x="363" y="362" style="font-size:12; font-family:SansSerif.plain; fill=#000000">FN_ACK()</text>
<text  x="404" y="345" style="font-size:12; font-family:SansSerif.bold; font-weight=bold; fill=#000000">R</text>
<text  x="405" y="346" style="font-size:12; font-family:SansSerif.bold; font-weight=bold; fill=#00e800">R</text>
<text  x="412" y="345" style="font-size:12; font-family:SansSerif.bold; font-weight=bold; fill=#000000">L</text>
<text  x="413" y="346" style="font-size:12; font-family:SansSerif.bold; font-weight=bold; fill=#404040">L</text>
<line  x1="415" y1="66" x2="415" y2="92" stroke="#000000" stroke-width="1" fill="none"/>
<polygon  points="415,92 410,83 419,83 " fill="#000000"/>
<polygon  points="415,92 410,83 419,83 " fill="none" stroke="#000000" stroke-width="1"/>
<line  x1="415" y1="138" x2="415" y2="153" stroke="#000000" stroke-width="1" fill="none"/>
<polygon  points="415,153 410,144 419,144 " fill="#000000"/>
<polygon  points="415,153 410,144 419,144 " fill="none" stroke="#000000" stroke-width="1"/>
<line  x1="390" y1="372" x2="390" y2="382" stroke="#000000" stroke-width="1" fill="none"/>
<line  x1="390" y1="382" x2="293" y2="382" stroke="#000000" stroke-width="1" fill="none"/>
<line  x1="293" y1="382" x2="293" y2="72" stroke="#000000" stroke-width="1" fill="none"/>
<line  x1="293" y1="72" x2="394" y2="72" stroke="#000000" stroke-width="1" fill="none"/>
<line  x1="394" y1="72" x2="394" y2="92" stroke="#000000" stroke-width="1" fill="none"/>
<polygon  points="394,92 389,83 398,83 " fill="#000000"/>
<polygon  points="394,92 389,83 398,83 " fill="none" stroke="#000000" stroke-width="1"/>
<rect  x="365" y="255" width="100" height="50" rx="5" ry="5" fill="#c1daf1"/>
<rect  x="365" y="255" width="100" height="50" rx="5" ry="5" fill="none" stroke="#000000" stroke-width="1"/>
<text  x="367" y="270" style="font-size:12; font-family:SansSerif.bold; font-weight=bold; fill=#000000">Msg_received</text>
<line  x1="365" y1="272" x2="465" y2="272" stroke="#000000" stroke-width="1" fill="none"/>
<line  x1="390" y1="305" x2="390" y2="342" stroke="#000000" stroke-width="1" fill="none"/>
<polygon  points="390,342 385,333 394,333 " fill="#000000"/>
<polygon  points="390,342 385,333 394,333 " fill="none" stroke="#000000" stroke-width="1"/>
<text  x="320" y="329" style="font-size:12; font-family:SansSerif.plain; fill=#694b0b">after (0,0)</text>
<line  x1="415" y1="183" x2="415" y2="255" stroke="#000000" stroke-width="1" fill="none"/>
<polygon  points="415,255 410,246 419,246 " fill="#000000"/>
<polygon  points="415,255 410,246 419,246 " fill="none" stroke="#000000" stroke-width="1"/>
<text  x="345" y="218" style="font-size:12; font-family:SansSerif.plain; fill=#694b0b">after (0,10)</text>
<line  x1="440" y1="305" x2="440" y2="342" stroke="#000000" stroke-width="1" fill="none"/>
<line  x1="440" y1="342" x2="504" y2="342" stroke="#000000" stroke-width="1" fill="none"/>
<line  x1="504" y1="342" x2="504" y2="72" stroke="#000000" stroke-width="1" fill="none"/>
<line  x1="504" y1="72" x2="436" y2="72" stroke="#000000" stroke-width="1" fill="none"/>
<line  x1="436" y1="72" x2="436" y2="92" stroke="#000000" stroke-width="1" fill="none"/>
<polygon  points="436,92 431,83 440,83 " fill="#000000"/>
<polygon  points="436,92 431,83 440,83 " fill="none" stroke="#000000" stroke-width="1"/>
<text  x="507" y="203" style="font-size:12; font-family:SansSerif.plain; fill=#694b0b">after (0,0)</text>
</svg>