<?xml version="1.0" standalone="no"?>
<!DOCTYPE svg PUBLIC "-//W3C//DTD SVG 1.1//EN" "http://www.w3.org/Graphics/SVG/1.1/DTD/svg11.dtd">
<svg xmlns="http://www.w3.org/2000/svg" version="1.1" width="823" height="765" viewbox="160 37 663 728">
<ellipse  cx="414" cy="49" rx="7" ry="7" fill="#000000"/>
<line  x1="414" y1="57" x2="414" y2="62" stroke="#000000" stroke-width="1" fill="none"/>
<line  x1="414" y1="162" x2="414" y2="157" stroke="#000000" stroke-width="1" fill="none"/>
<line  x1="414" y1="182" x2="414" y2="187" stroke="#000000" stroke-width="1" fill="none"/>
<line  x1="380" y1="163" x2="450" y2="163" stroke="#80b4cd" stroke-width="1" fill="none"/>
<line  x1="450" y1="163" x2="450" y2="183" stroke="#80b4cd" stroke-width="1" fill="none"/>
<line  x1="380" y1="183" x2="450" y2="183" stroke="#80b4cd" stroke-width="1" fill="none"/>
<line  x1="380" y1="163" x2="390" y2="173" stroke="#80b4cd" stroke-width="1" fill="none"/>
<line  x1="380" y1="183" x2="390" y2="173" stroke="#80b4cd" stroke-width="1" fill="none"/>
<line  x1="379" y1="162" x2="449" y2="162" stroke="#000000" stroke-width="1" fill="none"/>
<line  x1="449" y1="162" x2="449" y2="182" stroke="#000000" stroke-width="1" fill="none"/>
<line  x1="379" y1="182" x2="449" y2="182" stroke="#000000" stroke-width="1" fill="none"/>
<line  x1="379" y1="162" x2="389" y2="172" stroke="#000000" stroke-width="1" fill="none"/>
<line  x1="379" y1="182" x2="389" y2="172" stroke="#000000" stroke-width="1" fill="none"/>
<text  x="391" y="177" style="font-size:12; font-family:SansSerif.plain; fill=#000000">startIN()</text>
<line  x1="425" y1="410" x2="425" y2="405" stroke="#000000" stroke-width="1" fill="none"/>
<line  x1="425" y1="430" x2="425" y2="435" stroke="#000000" stroke-width="1" fill="none"/>
<line  x1="392" y1="411" x2="450" y2="411" stroke="#80b4cd" stroke-width="1" fill="none"/>
<line  x1="392" y1="431" x2="450" y2="431" stroke="#80b4cd" stroke-width="1" fill="none"/>
<line  x1="392" y1="411" x2="392" y2="431" stroke="#80b4cd" stroke-width="1" fill="none"/>
<line  x1="450" y1="411" x2="460" y2="421" stroke="#80b4cd" stroke-width="1" fill="none"/>
<line  x1="450" y1="431" x2="460" y2="421" stroke="#80b4cd" stroke-width="1" fill="none"/>
<line  x1="391" y1="410" x2="449" y2="410" stroke="#000000" stroke-width="1" fill="none"/>
<line  x1="391" y1="430" x2="449" y2="430" stroke="#000000" stroke-width="1" fill="none"/>
<line  x1="391" y1="410" x2="391" y2="430" stroke="#000000" stroke-width="1" fill="none"/>
<line  x1="449" y1="410" x2="459" y2="420" stroke="#000000" stroke-width="1" fill="none"/>
<line  x1="449" y1="430" x2="459" y2="420" stroke="#000000" stroke-width="1" fill="none"/>
<text  x="396" y="425" style="font-size:12; font-family:SansSerif.plain; fill=#000000">FN_CON()</text>
<rect  x="390" y="534" width="70" height="60" rx="5" ry="5" fill="#c1daf1"/>
<rect  x="390" y="534" width="70" height="60" rx="5" ry="5" fill="none" stroke="#000000" stroke-width="1"/>
<text  x="396" y="549" style="font-size:12; font-family:SansSerif.bold; font-weight=bold; fill=#000000">WaitAck</text>
<line  x1="390" y1="551" x2="460" y2="551" stroke="#000000" stroke-width="1" fill="none"/>
<text  x="441" y="532" style="font-size:12; font-family:SansSerif.bold; font-weight=bold; fill=#000000">R</text>
<text  x="442" y="533" style="font-size:12; font-family:SansSerif.bold; font-weight=bold; fill=#00e800">R</text>
<text  x="449" y="532" style="font-size:12; font-family:SansSerif.bold; font-weight=bold; fill=#000000">L</text>
<text  x="450" y="533" style="font-size:12; font-family:SansSerif.bold; font-weight=bold; fill=#404040">L</text>
<line  x1="376" y1="623" x2="376" y2="618" stroke="#000000" stroke-width="1" fill="none"/>
<line  x1="376" y1="643" x2="376" y2="648" stroke="#000000" stroke-width="1" fill="none"/>
<line  x1="341" y1="624" x2="414" y2="624" stroke="#80b4cd" stroke-width="1" fill="none"/>
<line  x1="414" y1="624" x2="414" y2="644" stroke="#80b4cd" stroke-width="1" fill="none"/>
<line  x1="341" y1="644" x2="414" y2="644" stroke="#80b4cd" stroke-width="1" fill="none"/>
<line  x1="341" y1="624" x2="351" y2="634" stroke="#80b4cd" stroke-width="1" fill="none"/>
<line  x1="341" y1="644" x2="351" y2="634" stroke="#80b4cd" stroke-width="1" fill="none"/>
<line  x1="340" y1="623" x2="413" y2="623" stroke="#000000" stroke-width="1" fill="none"/>
<line  x1="413" y1="623" x2="413" y2="643" stroke="#000000" stroke-width="1" fill="none"/>
<line  x1="340" y1="643" x2="413" y2="643" stroke="#000000" stroke-width="1" fill="none"/>
<line  x1="340" y1="623" x2="350" y2="633" stroke="#000000" stroke-width="1" fill="none"/>
<line  x1="340" y1="643" x2="350" y2="633" stroke="#000000" stroke-width="1" fill="none"/>
<text  x="352" y="638" style="font-size:12; font-family:SansSerif.plain; fill=#000000">FN_ACK()</text>
<text  x="394" y="621" style="font-size:12; font-family:SansSerif.bold; font-weight=bold; fill=#000000">R</text>
<text  x="395" y="622" style="font-size:12; font-family:SansSerif.bold; font-weight=bold; fill=#00e800">R</text>
<text  x="402" y="621" style="font-size:12; font-family:SansSerif.bold; font-weight=bold; fill=#000000">L</text>
<text  x="403" y="622" style="font-size:12; font-family:SansSerif.bold; font-weight=bold; fill=#404040">L</text>
<rect  x="359" y="75" width="110" height="50" rx="5" ry="5" fill="#c1daf1"/>
<rect  x="359" y="75" width="110" height="50" rx="5" ry="5" fill="none" stroke="#000000" stroke-width="1"/>
<text  x="362" y="90" style="font-size:12; font-family:SansSerif.bold; font-weight=bold; fill=#000000">WaitActivation</text>
<line  x1="359" y1="92" x2="469" y2="92" stroke="#000000" stroke-width="1" fill="none"/>
<rect  x="372" y="230" width="85" height="70" rx="5" ry="5" fill="#c1daf1"/>
<rect  x="372" y="230" width="85" height="70" rx="5" ry="5" fill="none" stroke="#000000" stroke-width="1"/>
<text  x="383" y="245" style="font-size:12; font-family:SansSerif.bold; font-weight=bold; fill=#000000">SendCon</text>
<line  x1="372" y1="247" x2="457" y2="247" stroke="#000000" stroke-width="1" fill="none"/>
<line  x1="375" y1="715" x2="375" y2="710" stroke="#000000" stroke-width="1" fill="none"/>
<line  x1="375" y1="735" x2="375" y2="740" stroke="#000000" stroke-width="1" fill="none"/>
<line  x1="341" y1="716" x2="402" y2="716" stroke="#80b4cd" stroke-width="1" fill="none"/>
<line  x1="341" y1="736" x2="402" y2="736" stroke="#80b4cd" stroke-width="1" fill="none"/>
<line  x1="341" y1="716" x2="341" y2="736" stroke="#80b4cd" stroke-width="1" fill="none"/>
<line  x1="402" y1="716" x2="412" y2="726" stroke="#80b4cd" stroke-width="1" fill="none"/>
<line  x1="402" y1="736" x2="412" y2="726" stroke="#80b4cd" stroke-width="1" fill="none"/>
<line  x1="340" y1="715" x2="401" y2="715" stroke="#000000" stroke-width="1" fill="none"/>
<line  x1="340" y1="735" x2="401" y2="735" stroke="#000000" stroke-width="1" fill="none"/>
<line  x1="340" y1="715" x2="340" y2="735" stroke="#000000" stroke-width="1" fill="none"/>
<line  x1="401" y1="715" x2="411" y2="725" stroke="#000000" stroke-width="1" fill="none"/>
<line  x1="401" y1="735" x2="411" y2="725" stroke="#000000" stroke-width="1" fill="none"/>
<text  x="345" y="730" style="font-size:12; font-family:SansSerif.plain; fill=#000000">success()</text>
<text  x="392" y="713" style="font-size:12; font-family:SansSerif.bold; font-weight=bold; fill=#000000">R</text>
<text  x="393" y="714" style="font-size:12; font-family:SansSerif.bold; font-weight=bold; fill=#00e800">R</text>
<text  x="400" y="713" style="font-size:12; font-family:SansSerif.bold; font-weight=bold; fill=#000000">L</text>
<text  x="401" y="714" style="font-size:12; font-family:SansSerif.bold; font-weight=bold; fill=#ff0000">L</text>
<line  x1="425" y1="473" x2="425" y2="468" stroke="#000000" stroke-width="1" fill="none"/>
<line  x1="425" y1="493" x2="425" y2="498" stroke="#000000" stroke-width="1" fill="none"/>
<line  x1="360" y1="474" x2="482" y2="474" stroke="#ffb469" stroke-width="1" fill="none"/>
<line  x1="360" y1="494" x2="482" y2="494" stroke="#ffb469" stroke-width="1" fill="none"/>
<line  x1="360" y1="474" x2="360" y2="494" stroke="#ffb469" stroke-width="1" fill="none"/>
<line  x1="482" y1="474" x2="492" y2="484" stroke="#ffb469" stroke-width="1" fill="none"/>
<line  x1="482" y1="494" x2="492" y2="484" stroke="#ffb469" stroke-width="1" fill="none"/>
<line  x1="359" y1="473" x2="481" y2="473" stroke="#000000" stroke-width="1" fill="none"/>
<line  x1="359" y1="493" x2="481" y2="493" stroke="#000000" stroke-width="1" fill="none"/>
<line  x1="359" y1="473" x2="359" y2="493" stroke="#000000" stroke-width="1" fill="none"/>
<line  x1="481" y1="473" x2="491" y2="483" stroke="#000000" stroke-width="1" fill="none"/>
<line  x1="481" y1="493" x2="491" y2="483" stroke="#000000" stroke-width="1" fill="none"/>
<line  x1="494" y1="474" x2="504" y2="474" stroke="#ffb469" stroke-width="1" fill="none"/>
<line  x1="494" y1="494" x2="504" y2="494" stroke="#ffb469" stroke-width="1" fill="none"/>
<line  x1="494" y1="474" x2="504" y2="494" stroke="#ffb469" stroke-width="1" fill="none"/>
<line  x1="494" y1="494" x2="504" y2="474" stroke="#ffb469" stroke-width="1" fill="none"/>
<line  x1="493" y1="473" x2="503" y2="473" stroke="#000000" stroke-width="1" fill="none"/>
<line  x1="493" y1="493" x2="503" y2="493" stroke="#000000" stroke-width="1" fill="none"/>
<line  x1="493" y1="473" x2="503" y2="493" stroke="#000000" stroke-width="1" fill="none"/>
<line  x1="493" y1="493" x2="503" y2="473" stroke="#000000" stroke-width="1" fill="none"/>
<text  x="364" y="488" style="font-size:12; font-family:SansSerif.plain; fill=#000000">setTimer(ATST1,10)</text>
<line  x1="504" y1="638" x2="504" y2="633" stroke="#000000" stroke-width="1" fill="none"/>
<line  x1="504" y1="658" x2="504" y2="663" stroke="#000000" stroke-width="1" fill="none"/>
<line  x1="452" y1="639" x2="558" y2="639" stroke="#ffb469" stroke-width="1" fill="none"/>
<line  x1="558" y1="639" x2="558" y2="659" stroke="#ffb469" stroke-width="1" fill="none"/>
<line  x1="452" y1="659" x2="558" y2="659" stroke="#ffb469" stroke-width="1" fill="none"/>
<line  x1="452" y1="639" x2="462" y2="649" stroke="#ffb469" stroke-width="1" fill="none"/>
<line  x1="452" y1="659" x2="462" y2="649" stroke="#ffb469" stroke-width="1" fill="none"/>
<line  x1="451" y1="638" x2="557" y2="638" stroke="#000000" stroke-width="1" fill="none"/>
<line  x1="557" y1="638" x2="557" y2="658" stroke="#000000" stroke-width="1" fill="none"/>
<line  x1="451" y1="658" x2="557" y2="658" stroke="#000000" stroke-width="1" fill="none"/>
<line  x1="451" y1="638" x2="461" y2="648" stroke="#000000" stroke-width="1" fill="none"/>
<line  x1="451" y1="658" x2="461" y2="648" stroke="#000000" stroke-width="1" fill="none"/>
<line  x1="560" y1="639" x2="570" y2="639" stroke="#ffb469" stroke-width="1" fill="none"/>
<line  x1="560" y1="659" x2="570" y2="659" stroke="#ffb469" stroke-width="1" fill="none"/>
<line  x1="560" y1="639" x2="570" y2="659" stroke="#ffb469" stroke-width="1" fill="none"/>
<line  x1="560" y1="659" x2="570" y2="639" stroke="#ffb469" stroke-width="1" fill="none"/>
<line  x1="559" y1="638" x2="569" y2="638" stroke="#000000" stroke-width="1" fill="none"/>
<line  x1="559" y1="658" x2="569" y2="658" stroke="#000000" stroke-width="1" fill="none"/>
<line  x1="559" y1="638" x2="569" y2="658" stroke="#000000" stroke-width="1" fill="none"/>
<line  x1="559" y1="658" x2="569" y2="638" stroke="#000000" stroke-width="1" fill="none"/>
<text  x="466" y="653" style="font-size:12; font-family:SansSerif.plain; fill=#000000">expire(ATST1)</text>
<line  x1="376" y1="666" x2="376" y2="661" stroke="#000000" stroke-width="1" fill="none"/>
<line  x1="376" y1="686" x2="376" y2="691" stroke="#000000" stroke-width="1" fill="none"/>
<line  x1="332" y1="667" x2="413" y2="667" stroke="#ffb469" stroke-width="1" fill="none"/>
<line  x1="332" y1="687" x2="413" y2="687" stroke="#ffb469" stroke-width="1" fill="none"/>
<line  x1="332" y1="667" x2="332" y2="687" stroke="#ffb469" stroke-width="1" fill="none"/>
<line  x1="413" y1="667" x2="423" y2="677" stroke="#ffb469" stroke-width="1" fill="none"/>
<line  x1="413" y1="687" x2="423" y2="677" stroke="#ffb469" stroke-width="1" fill="none"/>
<line  x1="331" y1="666" x2="412" y2="666" stroke="#000000" stroke-width="1" fill="none"/>
<line  x1="331" y1="686" x2="412" y2="686" stroke="#000000" stroke-width="1" fill="none"/>
<line  x1="331" y1="666" x2="331" y2="686" stroke="#000000" stroke-width="1" fill="none"/>
<line  x1="412" y1="666" x2="422" y2="676" stroke="#000000" stroke-width="1" fill="none"/>
<line  x1="412" y1="686" x2="422" y2="676" stroke="#000000" stroke-width="1" fill="none"/>
<line  x1="425" y1="667" x2="435" y2="667" stroke="#ffb469" stroke-width="1" fill="none"/>
<line  x1="425" y1="687" x2="435" y2="687" stroke="#ffb469" stroke-width="1" fill="none"/>
<line  x1="425" y1="667" x2="435" y2="687" stroke="#ffb469" stroke-width="1" fill="none"/>
<line  x1="425" y1="687" x2="435" y2="667" stroke="#ffb469" stroke-width="1" fill="none"/>
<line  x1="424" y1="666" x2="434" y2="666" stroke="#000000" stroke-width="1" fill="none"/>
<line  x1="424" y1="686" x2="434" y2="686" stroke="#000000" stroke-width="1" fill="none"/>
<line  x1="424" y1="666" x2="434" y2="686" stroke="#000000" stroke-width="1" fill="none"/>
<line  x1="424" y1="686" x2="434" y2="666" stroke="#000000" stroke-width="1" fill="none"/>
<text  x="336" y="681" style="font-size:12; font-family:SansSerif.plain; fill=#000000">reset(ATST1)</text>
<line  x1="425" y1="353" x2="440" y2="368" stroke="#000000" stroke-width="1" fill="none"/>
<line  x1="410" y1="368" x2="425" y2="383" stroke="#000000" stroke-width="1" fill="none"/>
<line  x1="425" y1="353" x2="410" y2="368" stroke="#000000" stroke-width="1" fill="none"/>
<line  x1="440" y1="368" x2="425" y2="383" stroke="#000000" stroke-width="1" fill="none"/>
<line  x1="425" y1="353" x2="425" y2="343" stroke="#000000" stroke-width="1" fill="none"/>
<line  x1="410" y1="368" x2="400" y2="368" stroke="#000000" stroke-width="1" fill="none"/>
<line  x1="440" y1="368" x2="450" y2="368" stroke="#000000" stroke-width="1" fill="none"/>
<line  x1="425" y1="383" x2="425" y2="393" stroke="#000000" stroke-width="1" fill="none"/>
<line  x1="424" y1="300" x2="425" y2="343" stroke="#000000" stroke-width="1" fill="none"/>
<polygon  points="425,343 419,334 429,334 " fill="#000000"/>
<polygon  points="425,343 419,334 429,334 " fill="none" stroke="#000000" stroke-width="1"/>
<text  x="432" y="326" style="font-size:12; font-family:SansSerif.plain; fill=#7710f3">transmissions = transmissions + 1</text>
<line  x1="376" y1="691" x2="375" y2="710" stroke="#000000" stroke-width="1" fill="none"/>
<polygon  points="375,710 370,701 380,701 " fill="#000000"/>
<polygon  points="375,710 370,701 380,701 " fill="none" stroke="#000000" stroke-width="1"/>
<line  x1="376" y1="648" x2="376" y2="661" stroke="#000000" stroke-width="1" fill="none"/>
<line  x1="460" y1="594" x2="504" y2="633" stroke="#000000" stroke-width="1" fill="none"/>
<polygon  points="504,633 494,630 500,623 " fill="#000000"/>
<polygon  points="504,633 494,630 500,623 " fill="none" stroke="#000000" stroke-width="1"/>
<line  x1="425" y1="594" x2="376" y2="618" stroke="#000000" stroke-width="1" fill="none"/>
<polygon  points="376,618 381,609 385,618 " fill="#000000"/>
<polygon  points="376,618 381,609 385,618 " fill="none" stroke="#000000" stroke-width="1"/>
<line  x1="414" y1="62" x2="414" y2="75" stroke="#000000" stroke-width="1" fill="none"/>
<line  x1="414" y1="125" x2="414" y2="157" stroke="#000000" stroke-width="1" fill="none"/>
<polygon  points="414,157 409,148 418,148 " fill="#000000"/>
<polygon  points="414,157 409,148 418,148 " fill="none" stroke="#000000" stroke-width="1"/>
<line  x1="414" y1="187" x2="414" y2="230" stroke="#000000" stroke-width="1" fill="none"/>
<polygon  points="414,230 409,221 418,221 " fill="#000000"/>
<polygon  points="414,230 409,221 418,221 " fill="none" stroke="#000000" stroke-width="1"/>
<line  x1="375" y1="740" x2="375" y2="760" stroke="#000000" stroke-width="1" fill="none"/>
<line  x1="375" y1="760" x2="285" y2="760" stroke="#000000" stroke-width="1" fill="none"/>
<line  x1="285" y1="760" x2="285" y2="55" stroke="#000000" stroke-width="1" fill="none"/>
<line  x1="285" y1="55" x2="386" y2="55" stroke="#000000" stroke-width="1" fill="none"/>
<line  x1="386" y1="55" x2="386" y2="75" stroke="#000000" stroke-width="1" fill="none"/>
<polygon  points="386,75 381,66 390,66 " fill="#000000"/>
<polygon  points="386,75 381,66 390,66 " fill="none" stroke="#000000" stroke-width="1"/>
<text  x="165" y="404" style="font-size:12; font-family:SansSerif.plain; fill=#7710f3">transmissions = 0  </text>
<rect  x="535" y="393" width="131" height="50" rx="5" ry="5" fill="#c1daf1"/>
<rect  x="535" y="393" width="131" height="50" rx="5" ry="5" fill="none" stroke="#000000" stroke-width="1"/>
<text  x="547" y="408" style="font-size:12; font-family:SansSerif.bold; font-weight=bold; fill=#000000">NotificationFail</text>
<line  x1="535" y1="410" x2="666" y2="410" stroke="#000000" stroke-width="1" fill="none"/>
<text  x="647" y="391" style="font-size:12; font-family:SansSerif.bold; font-weight=bold; fill=#000000">R</text>
<text  x="648" y="392" style="font-size:12; font-family:SansSerif.bold; font-weight=bold; fill=#00e800">R</text>
<text  x="655" y="391" style="font-size:12; font-family:SansSerif.bold; font-weight=bold; fill=#000000">L</text>
<text  x="656" y="392" style="font-size:12; font-family:SansSerif.bold; font-weight=bold; fill=#404040">L</text>
<line  x1="450" y1="368" x2="600" y2="393" stroke="#000000" stroke-width="1" fill="none"/>
<polygon  points="600,393 590,396 592,386 " fill="#000000"/>
<polygon  points="600,393 590,396 592,386 " fill="none" stroke="#000000" stroke-width="1"/>
<text  x="493" y="368" style="font-size:12; font-family:SansSerif.plain; fill=#00591a">[ transmissions == 4 ]</text>
<line  x1="425" y1="435" x2="425" y2="468" stroke="#000000" stroke-width="1" fill="none"/>
<polygon  points="425,468 420,459 429,459 " fill="#000000"/>
<polygon  points="425,468 420,459 429,459 " fill="none" stroke="#000000" stroke-width="1"/>
<line  x1="504" y1="663" x2="504" y2="680" stroke="#000000" stroke-width="1" fill="none"/>
<line  x1="504" y1="680" x2="716" y2="680" stroke="#000000" stroke-width="1" fill="none"/>
<line  x1="716" y1="680" x2="716" y2="210" stroke="#000000" stroke-width="1" fill="none"/>
<line  x1="716" y1="210" x2="445" y2="210" stroke="#000000" stroke-width="1" fill="none"/>
<line  x1="445" y1="210" x2="445" y2="230" stroke="#000000" stroke-width="1" fill="none"/>
<polygon  points="445,230 440,221 449,221 " fill="#000000"/>
<polygon  points="445,230 440,221 449,221 " fill="none" stroke="#000000" stroke-width="1"/>
<line  x1="425" y1="498" x2="425" y2="534" stroke="#000000" stroke-width="1" fill="none"/>
<polygon  points="425,534 420,525 429,525 " fill="#000000"/>
<polygon  points="425,534 420,525 429,525 " fill="none" stroke="#000000" stroke-width="1"/>
<line  x1="425" y1="393" x2="425" y2="405" stroke="#000000" stroke-width="1" fill="none"/>
<text  x="374" y="398" style="font-size:12; font-family:SansSerif.plain; fill=#00591a">[ else ]</text>
<line  x1="600" y1="493" x2="600" y2="488" stroke="#000000" stroke-width="1" fill="none"/>
<line  x1="600" y1="513" x2="600" y2="518" stroke="#000000" stroke-width="1" fill="none"/>
<line  x1="572" y1="494" x2="621" y2="494" stroke="#80b4cd" stroke-width="1" fill="none"/>
<line  x1="572" y1="514" x2="621" y2="514" stroke="#80b4cd" stroke-width="1" fill="none"/>
<line  x1="572" y1="494" x2="572" y2="514" stroke="#80b4cd" stroke-width="1" fill="none"/>
<line  x1="621" y1="494" x2="631" y2="504" stroke="#80b4cd" stroke-width="1" fill="none"/>
<line  x1="621" y1="514" x2="631" y2="504" stroke="#80b4cd" stroke-width="1" fill="none"/>
<line  x1="571" y1="493" x2="620" y2="493" stroke="#000000" stroke-width="1" fill="none"/>
<line  x1="571" y1="513" x2="620" y2="513" stroke="#000000" stroke-width="1" fill="none"/>
<line  x1="571" y1="493" x2="571" y2="513" stroke="#000000" stroke-width="1" fill="none"/>
<line  x1="620" y1="493" x2="630" y2="503" stroke="#000000" stroke-width="1" fill="none"/>
<line  x1="620" y1="513" x2="630" y2="503" stroke="#000000" stroke-width="1" fill="none"/>
<text  x="576" y="508" style="font-size:12; font-family:SansSerif.plain; fill=#000000">failure()</text>
<text  x="611" y="491" style="font-size:12; font-family:SansSerif.bold; font-weight=bold; fill=#000000">R</text>
<text  x="612" y="492" style="font-size:12; font-family:SansSerif.bold; font-weight=bold; fill=#00e800">R</text>
<text  x="619" y="491" style="font-size:12; font-family:SansSerif.bold; font-weight=bold; fill=#000000">L</text>
<text  x="620" y="492" style="font-size:12; font-family:SansSerif.bold; font-weight=bold; fill=#ff0000">L</text>
<line  x1="600" y1="443" x2="600" y2="488" stroke="#000000" stroke-width="1" fill="none"/>
<polygon  points="600,488 595,479 604,479 " fill="#000000"/>
<polygon  points="600,488 595,479 604,479 " fill="none" stroke="#000000" stroke-width="1"/>
<line  x1="600" y1="518" x2="600" y2="538" stroke="#000000" stroke-width="1" fill="none"/>
<line  x1="600" y1="538" x2="695" y2="538" stroke="#000000" stroke-width="1" fill="none"/>
<line  x1="695" y1="538" x2="695" y2="55" stroke="#000000" stroke-width="1" fill="none"/>
<line  x1="695" y1="55" x2="441" y2="55" stroke="#000000" stroke-width="1" fill="none"/>
<line  x1="441" y1="55" x2="441" y2="75" stroke="#000000" stroke-width="1" fill="none"/>
<polygon  points="441,75 436,66 445,66 " fill="#000000"/>
<polygon  points="441,75 436,66 445,66 " fill="none" stroke="#000000" stroke-width="1"/>
<text  x="701" y="112" style="font-size:12; font-family:SansSerif.plain; fill=#7710f3">transmissions = 0 </text>
</svg>